<svg id="Layer_1" data-name="Layer 1" xmlns="http://www.w3.org/2000/svg" width="150" height="250" viewBox="0 0 150 250"><defs><style>.cls-1{fill:#ed1c24;}.cls-2{fill:#22b573;}.cls-3{fill:none;}.cls-4{fill:#fbb03b;}</style></defs><title>logo_v2</title><path class="cls-1" d="M74.36,13c-.15.3-2,5-2,5,0,2.33-.3,5.8,0,6s3-7.59,3-9C75.36,15,75.36,11,74.36,13Z"/><path class="cls-2" d="M38.27,207.48a8.42,8.42,0,0,1-8.41-8.41L30.36,98V97c0-16,29.75-16,32-16h23c4.63,0,31,3,30.5,15.91V199.07a8.42,8.42,0,0,1-8.41,8.41Z"/><path class="cls-3" d="M107.45,89a7.92,7.92,0,0,1,7.91,7.91V199.07a7.92,7.92,0,0,1-7.91,7.91H38.27a7.92,7.92,0,0,1-7.91-7.91V96.89a8.11,8.11,0,0,1,2.32-5.59A7.81,7.81,0,0,1,38.27,89h69.18m0-1H38.27A8.89,8.89,0,0,0,32,90.59a9.09,9.09,0,0,0-2.61,6.3V199.07A8.91,8.91,0,0,0,38.27,208h69.18a8.91,8.91,0,0,0,8.91-8.91V96.89A8.91,8.91,0,0,0,107.45,88Z"/><polygon class="cls-2" points="60.36 90.98 66.86 38.48 80.86 38.48 87.36 90.98 60.36 90.98"/><path class="cls-3" d="M80.36,39V90h-13V39h13m1-1h-15V91h15V38Z"/><path class="cls-3" d="M32.68,91.3A7.81,7.81,0,0,1,38.27,89h69.18"/><path class="cls-3" d="M107.45,89a7.92,7.92,0,0,1,7.91,7.91V199.07a7.92,7.92,0,0,1-7.91,7.91H38.27a7.92,7.92,0,0,1-7.91-7.91"/><path class="cls-3" d="M29.36,199.07A8.91,8.91,0,0,0,38.27,208h69.18a8.91,8.91,0,0,0,8.91-8.91V96.89A8.91,8.91,0,0,0,107.45,88H38.27A8.89,8.89,0,0,0,32,90.59"/><path class="cls-1" d="M30.36,197.48l85-2V103s-5.18,12.26-6.92,12.06c-2.83-.32-4-15.08-4-15.08s1.06,15.92,0,16.08c-.69.11-4-7-4-7s-4.19,6.62-7.9,7C86.84,116.72,79.78,101,79.78,101s3.73,14.78,3,15.07c-.51.2-4.94-6-4.94-6s-3.15,6.17-4,6c-1.41-.22-1-19.09-1-19.09S64.36,115.72,62,115.07c-1.41-.39-2-8-2-8s-6,9.63-8.89,9c-3.18-.64-4-14.07-4-14.07s-1.64,15.9-3.95,16.08c-1.84.15-5.93-10-5.93-10-2.31,3.35-4.61,5.7-6.92,9Z"/><path d="M29.86,198V116.92l.09-.12c1.16-1.69,2.34-3.15,3.48-4.56s2.29-2.83,3.44-4.49l.53-.77.34.87c2.09,5.2,4.61,9.74,5.42,9.74h0c1-.08,2.64-7.39,3.5-15.64l1,0c.29,5,1.52,13.19,3.56,13.6s6.12-5.21,8.37-8.81l.81-1.3.11,1.52c.28,3.8,1,7.35,1.61,7.6h0c1.34,0,6.37-9.22,10.26-17.82l1-2.22,0,2.44c-.18,8,0,16.77.61,18.44a34.49,34.49,0,0,0,3.39-5.61l.37-.74.48.68c1.5,2.1,3.22,4.36,4.11,5.35-.23-2.31-1.81-9.16-3-14l.94-.33c1.93,4.28,7.88,15.28,12.34,14.79,3.43-.38,7.5-6.74,7.54-6.81l.5-.78.38.84a56.65,56.65,0,0,0,3.32,6.41c.31-1.95.1-8.87-.32-15.21l1-.07c.52,6.89,2,14.44,3.51,14.61,1-.18,4.07-6.24,6.4-11.75l1-2.28V196Zm1-80.75V197l84-2V105.42c-2,4.61-4.93,10.35-6.47,10.15-.51-.06-1.8-.68-2.92-5.16.06,6-.56,6.1-.91,6.16s-1,.16-4.11-6.51c-1.25,1.79-4.6,6.16-7.77,6.51-4.18.47-8.78-6.65-11.35-11.36,2.63,10.93,2,11.17,1.59,11.33s-.84.32-5-5.54c-3,5.75-3.77,5.62-4.1,5.57s-1.72-.28-1.46-17.21c-3,6.37-8.19,16.78-10.46,16.19-1.31-.36-1.93-4.32-2.21-7-1.88,2.82-6,8.55-8.62,8-2.26-.45-3.38-5.72-3.92-9.87-.74,5.29-2,11.75-3.85,11.89h-.06c-1.84,0-4.61-6.09-6-9.52-1,1.38-2,2.61-2.95,3.8C33.11,114.23,32,115.63,30.86,117.24Z"/><rect x="44.93" y="131.06" width="57.43" height="3"/><path d="M102.36,132.07c0,5.42-3.26,18.54-9.34,18.5S74.48,137.4,74.52,132"/><path d="M44.41,132.07c0,5.42,3.26,18.54,9.35,18.5S72.23,137.4,72.2,132"/><path d="M14.86,202.48c.35,2.06,18.36,3.93,25-1,11-8.17,8.78-27.67,11-31,2-3,13.47.14,19-4a8.75,8.75,0,0,0,3-5c-16.53-5.44-25-1-27,0-8.54,4.27-2.81,18.7-11,29"/><path d="M75.85,161.48c16.53-5.44,25-1,27,0,8.55,4.27,2.82,18.7,11,29,6.4,8.05,20.36,9.9,20,12s-18.36,3.93-25-1c-11-8.17-8.78-27.67-11-31-2-3-13.47.14-19-4A8.75,8.75,0,0,1,75.85,161.48Z"/><rect class="cls-2" x="67.36" y="81.98" width="13" height="12"/><path class="cls-4" d="M79.86,8.48l-5-5c-1.54,0-8,25.46-8,27v8h14Z"/><path class="cls-1" d="M77.36,6c-.26.22-1,2-1,5,0,2.33,1.75,16.25,2,16,1-1,2-18,2-18C79.36,8,77.67,5.71,77.36,6Z"/><path class="cls-1" d="M71.36,18c-.26.22-1,2-1,5v1c.37.24,1.89,1.42,2-1C72.49,19.92,71.67,17.71,71.36,18Z"/><path class="cls-4" d="M24.36,226a1,1,0,0,1,.32-.74,1,1,0,0,1,.76-.31H38.15a1.08,1.08,0,0,1,0,2.15H26.51v6.79h5.28a1.17,1.17,0,0,1,.82.32A1,1,0,0,1,33,235a1,1,0,0,1-.35.77,1.16,1.16,0,0,1-.82.31H26.51v9.4a1,1,0,0,1-.31.74,1,1,0,0,1-.76.31,1,1,0,0,1-.76-.31,1,1,0,0,1-.32-.74Z"/><path class="cls-4" d="M44.78,226a1,1,0,0,1,.32-.74,1,1,0,0,1,.76-.31,1,1,0,0,1,.76.31,1,1,0,0,1,.32.74V240.2a3.15,3.15,0,0,0,.33,1.3,5.06,5.06,0,0,0,.93,1.34,4.3,4.3,0,0,0,1.28.95,8,8,0,0,0,1.33.39,7.45,7.45,0,0,0,1.4.19,9.29,9.29,0,0,0,2.74-.58,4.3,4.3,0,0,0,1.28-.95,5.26,5.26,0,0,0,.92-1.34,3,3,0,0,0,.34-1.3V226a1,1,0,0,1,.32-.74,1.09,1.09,0,0,1,1.52,0,1,1,0,0,1,.31.74v14.21a5.62,5.62,0,0,1-1,3.15A6.65,6.65,0,0,1,56,245.71a9.15,9.15,0,0,1-1.85.59,8.89,8.89,0,0,1-3.93,0,9.15,9.15,0,0,1-1.85-.59,6.72,6.72,0,0,1-2.58-2.32,5.63,5.63,0,0,1-1-3.15Z"/><path class="cls-4" d="M66.83,226a1,1,0,0,1,.31-.74,1.06,1.06,0,0,1,.77-.31h12.7a1.08,1.08,0,1,1,0,2.15H69v6.79h5.28a1.17,1.17,0,0,1,.82.32,1,1,0,0,1,.35.75,1,1,0,0,1-.35.77,1.16,1.16,0,0,1-.82.31H69v8.3H80.61a1,1,0,0,1,.76.31,1.07,1.07,0,0,1,.32.76,1.09,1.09,0,0,1-1.08,1.08H67.91a1.06,1.06,0,0,1-.77-.31,1,1,0,0,1-.31-.74Z"/><path class="cls-4" d="M88.87,225h6a11,11,0,0,1,3,.41,8.19,8.19,0,0,1,2.46,1.12,5.52,5.52,0,0,1,1.65,1.76,4.37,4.37,0,0,1,.61,2.25,4.47,4.47,0,0,1-.8,2.57A5.92,5.92,0,0,1,99.72,235a9,9,0,0,1-3,1l5.78,9a1,1,0,0,1,.12.79,1.08,1.08,0,0,1-.49.64,1.11,1.11,0,0,1-.83.12,1.07,1.07,0,0,1-.65-.47l-6.59-9.94H89.94v9.4a1,1,0,0,1-.31.74,1.09,1.09,0,0,1-1.52,0,1,1,0,0,1-.32-.74V226a1,1,0,0,1,.32-.74A1,1,0,0,1,88.87,225Zm1.07,8.94h5a9,9,0,0,0,1.91-.19,6.71,6.71,0,0,0,1.57-.53,5.37,5.37,0,0,0,1.15-.77,2.93,2.93,0,0,0,.72-.92,2.07,2.07,0,0,0,.25-1,2.1,2.1,0,0,0-.25-1,3,3,0,0,0-.72-.92,5.37,5.37,0,0,0-1.15-.77,6.28,6.28,0,0,0-1.57-.53,9,9,0,0,0-1.91-.2h-5Z"/><path class="cls-4" d="M108.75,227.13a1,1,0,0,1-.75-.31,1.08,1.08,0,0,1,.75-1.84h12.71a1,1,0,0,1,.76.32,1.08,1.08,0,0,1-.76,1.83h-5.18v18.35a1,1,0,0,1-.34.74,1.3,1.3,0,0,1-1.66,0,1,1,0,0,1-.34-.74V227.13Z"/><path class="cls-4" d="M128.64,226a1,1,0,0,1,.32-.74,1,1,0,0,1,.76-.31h12.71a1.05,1.05,0,0,1,.76.32,1.07,1.07,0,0,1-.76,1.83H130.8v6.79h5.27a1.2,1.2,0,0,1,.83.32,1,1,0,0,1,.34.75,1,1,0,0,1-.34.77,1.19,1.19,0,0,1-.83.31H130.8v8.3h11.63a1,1,0,0,1,.76.31,1.07,1.07,0,0,1,.32.76,1,1,0,0,1-.32.76,1.05,1.05,0,0,1-.76.32H129.72a1,1,0,0,1-.76-.31,1,1,0,0,1-.32-.74Z"/><path class="cls-4" d="M15,223.13a.69.69,0,0,1,.41-.32.61.61,0,0,1,.51.06.73.73,0,0,1,.34.43.69.69,0,0,1-.06.53,4.94,4.94,0,0,1-1.13,1.26,7.48,7.48,0,0,1-1.6,1,4.85,4.85,0,0,1-2.53.43,4.37,4.37,0,0,1-2.34-.81,4.76,4.76,0,0,1-.89-.86,5.2,5.2,0,0,1-.69-1,5.27,5.27,0,0,1-.38-1.18,4.32,4.32,0,0,1,.7-3.57,4.85,4.85,0,0,1,1.93-1.71,5.13,5.13,0,0,1,1.34-.44,4.51,4.51,0,0,1,1.31-.05,2.56,2.56,0,0,1,1.12.4,2,2,0,0,1,.77.86l.87,1.81a.64.64,0,0,1,0,.51.69.69,0,0,1-.36.39l-5.82,2.8a4.18,4.18,0,0,0,.47.57,2.73,2.73,0,0,0,.45.42,2.87,2.87,0,0,0,1.06.42,4.57,4.57,0,0,0,1.28.07,3.28,3.28,0,0,0,1.09-.27,6,6,0,0,0,1.26-.84A4.07,4.07,0,0,0,15,223.13Zm-7.11-1.67a4,4,0,0,0,.1.94l5.13-2.47-.56-1.16a.74.74,0,0,0-.32-.31,1.59,1.59,0,0,0-.57-.18,2.62,2.62,0,0,0-.82,0,4.19,4.19,0,0,0-1,.33,3.19,3.19,0,0,0-.9.69,4.56,4.56,0,0,0-.74,1A2.7,2.7,0,0,0,7.87,221.46Z"/><path class="cls-4" d="M21.64,220.09a2.63,2.63,0,0,0,.83,0,3,3,0,0,0,.86-.23l.27-.16a3.9,3.9,0,0,1,.36-.22,2,2,0,0,1,.37-.15.58.58,0,0,1,.39,0,.62.62,0,0,1,.32.27.66.66,0,0,1,.13.3.48.48,0,0,1,0,.27,1,1,0,0,1-.14.24,1.1,1.1,0,0,1-.22.21l-.26.17-.27.15L24,221l-.09.05a4.53,4.53,0,0,1-1.29.38,3.7,3.7,0,0,1-1.29,0,3,3,0,0,1-1.13-.51,2.48,2.48,0,0,1-.79-.9L15,210.8a.7.7,0,0,1,0-.53.73.73,0,0,1,.35-.4.65.65,0,0,1,.53,0,.69.69,0,0,1,.4.35l4.44,9.22a1.38,1.38,0,0,0,.39.39A1.45,1.45,0,0,0,21.64,220.09Z"/></svg>
