<svg id="Layer_1" data-name="Layer 1" xmlns="http://www.w3.org/2000/svg" width="100" height="120" viewBox="0 0 100 120"><defs><style>.cls-1{fill:#22b573;}.cls-2{fill:#ffaaa2;}.cls-3{fill:#fff;}.cls-4{fill:#eead44;}.cls-5{fill:#ed1c24;}.cls-6{fill:#f76900;}.cls-7{fill:#f4f4f4;}.cls-8,.cls-9{fill:#fbb03b;}.cls-9{stroke:#f37176;stroke-miterlimit:10;}</style></defs><title>Skelet_1</title><path class="cls-1" d="M6.26,68.58C-6.85,60.71,8.56,12.14,38.7,5.87,69.45-.53,101.41,39.39,98.22,52.8c-.49,2.05-1.44,3.94-3.49,4.44-3,.71-8.2,1.68-8.45,2.69-1.09,4.33,10.81-2.16,11.89,7.57.61,5.48-10.81,5.41-8.65,16.22.42,2.12-15.14,6.49-6.49,22.7,2,3.82-37.44,10.79-37.84,7.57C43,96.69,26.81,98.86,26.81,96.69c0-14.22-14.06-8.65-16.22-15.13-2.82-8.46,9.23-5.91,7.57-10.82C17,67.15,11.67,71.83,6.26,68.58Z"/><ellipse class="cls-2" cx="39.72" cy="75.46" rx="5.95" ry="2.33" transform="translate(-10.73 6.71) rotate(-8.51)"/><circle class="cls-3" cx="33.84" cy="52.9" r="11.35"/><circle class="cls-3" cx="66.27" cy="46.42" r="11.35"/><ellipse class="cls-3" cx="49.24" cy="103.38" rx="1.77" ry="5.03" transform="translate(-17.04 10.01) rotate(-9.9)"/><ellipse class="cls-3" cx="52.79" cy="102.62" rx="1.77" ry="5.03" transform="translate(-18.1 11.56) rotate(-10.68)"/><ellipse class="cls-3" cx="56.34" cy="101.87" rx="1.77" ry="5.03" transform="translate(-14.48 9.48) rotate(-8.53)"/><ellipse class="cls-3" cx="59.89" cy="101.12" rx="1.77" ry="5.04" transform="translate(-18.46 13.52) rotate(-11.17)"/><ellipse class="cls-3" cx="63.44" cy="100.37" rx="1.77" ry="5.03" transform="translate(-15.11 11.33) rotate(-9.13)"/><ellipse class="cls-3" cx="67" cy="99.61" rx="1.77" ry="5.03" transform="translate(-15.87 12.76) rotate(-9.73)"/><ellipse class="cls-3" cx="70.5" cy="98.87" rx="1.72" ry="5.03" transform="translate(-13.47 11.16) rotate(-8.26)"/><ellipse class="cls-3" cx="74.01" cy="98.12" rx="1.77" ry="5.04" transform="translate(-17.03 15.56) rotate(-10.77)"/><circle class="cls-4" cx="33.84" cy="52.9" r="9.19"/><circle class="cls-4" cx="66.27" cy="46.42" r="9.19"/><circle class="cls-5" cx="66.27" cy="46.42" r="7.03"/><circle class="cls-5" cx="33.84" cy="52.9" r="7.03"/><ellipse class="cls-2" cx="78.71" cy="64.8" rx="5.95" ry="2.16" transform="translate(-8.67 117.33) rotate(-70.48)"/><ellipse class="cls-2" cx="81.95" cy="68.04" rx="5.95" ry="2.16" transform="translate(-19.2 34.67) rotate(-21.45)"/><ellipse class="cls-2" cx="83.03" cy="72.37" rx="2.16" ry="5.95" transform="translate(1.06 145.93) rotate(-82.98)"/><ellipse class="cls-2" cx="74.38" cy="65.88" rx="2.16" ry="5.95" transform="translate(-18.26 29.96) rotate(-20.34)"/><ellipse class="cls-2" cx="71.14" cy="68.04" rx="2.16" ry="5.95" transform="translate(-23.36 95.63) rotate(-60)"/><ellipse class="cls-2" cx="74.38" cy="75.61" rx="5.95" ry="2.16" transform="translate(-25.7 110.73) rotate(-64.81)"/><ellipse class="cls-2" cx="71.14" cy="72.37" rx="5.95" ry="2.16" transform="translate(-28.46 52.94) rotate(-34.45)"/><ellipse class="cls-2" cx="78.71" cy="75.61" rx="2.16" ry="5.95" transform="translate(-21.63 32.66) rotate(-20.68)"/><circle class="cls-6" cx="76.54" cy="70.74" r="4.32"/><ellipse class="cls-2" cx="35.46" cy="72.37" rx="5.95" ry="2.16" transform="translate(-44.6 81.61) rotate(-70.48)"/><ellipse class="cls-2" cx="39.78" cy="79.93" rx="2.16" ry="5.95" transform="translate(-44.41 109.65) rotate(-82.98)"/><ellipse class="cls-2" cx="31.13" cy="73.45" rx="2.16" ry="5.95" transform="translate(-23.59 15.4) rotate(-20.34)"/><ellipse class="cls-2" cx="27.89" cy="75.61" rx="2.16" ry="5.95" transform="translate(-51.53 61.96) rotate(-60)"/><ellipse class="cls-2" cx="31.13" cy="83.18" rx="5.95" ry="2.16" transform="translate(-57.39 75.94) rotate(-64.81)"/><ellipse class="cls-2" cx="27.89" cy="79.93" rx="5.95" ry="2.16" transform="translate(-40.33 29.8) rotate(-34.45)"/><ellipse class="cls-2" cx="35.46" cy="83.18" rx="2.16" ry="5.95" transform="translate(-27.09 17.88) rotate(-20.68)"/><circle class="cls-6" cx="33.3" cy="78.31" r="4.32"/><circle cx="48.43" cy="96.69" r="1.08"/><circle cx="54.83" cy="95.25" r="1.08"/><circle cx="58.15" cy="94.56" r="1.08"/><circle cx="61.51" cy="93.78" r="1.08"/><circle cx="64.54" cy="93.03" r="1.08"/><circle cx="67.89" cy="92.37" r="1.08"/><circle cx="71.25" cy="91.71" r="1.08"/><circle cx="51.74" cy="95.89" r="1.08"/><circle cx="51.68" cy="109.67" r="1.08"/><circle cx="58.08" cy="108.22" r="1.08"/><circle cx="61.39" cy="107.54" r="1.08"/><circle cx="64.75" cy="106.76" r="1.08"/><circle cx="67.78" cy="106.01" r="1.08"/><circle cx="71.14" cy="105.34" r="1.08"/><circle cx="74.49" cy="104.68" r="1.08"/><circle cx="54.99" cy="108.87" r="1.08"/><path d="M34,11.59c-5,2.45-9.62,7.08-13.52,11a41.35,41.35,0,0,0-9,13.17,144.11,144.11,0,0,0-5,13.92c-1.23,4.09-3,9.32.08,13.15,1.85,2.32,7.8,3.45,10.54,2.71a2.39,2.39,0,0,0,1.89-1.26c.71-1.32.46-5.62.19-7-1.25-6.68-11.17-3.77-8,2.92.84,1.74,3.42.22,2.59-1.51-.42-.88.29-6.11,2.21.44a2.75,2.75,0,0,1-.77,3.15c-3.1,1.87-7-1.78-7.36-4.6-.64-5.88,3.73-12.67,5.58-18a37.48,37.48,0,0,1,7.92-13.71c3.93-4.22,8.92-9.21,14.12-11.75,1.74-.84.22-3.43-1.51-2.59Z"/><path class="cls-5" d="M21.8,42.49c0-4.38,4.56-9.74,7-13.15,2.11-2.94,4.12-6,7.26-7.95,1.92-1.21,1.56-1.34,3.21.17,1.52.83,1.7,2,.56,3.51q-.66,4.09-4.06,3.13c1.26-1.45-.85-3.58-2.13-2.12-3,3.38-.23,7.82,4.2,5.87S46,21.61,41.46,18C36.71,14.27,30.35,22.19,28,25.32c-3.45,4.55-9.23,11.17-9.18,17.17a1.5,1.5,0,0,0,3,0Z"/><path class="cls-7" d="M35.8,38.19a10.68,10.68,0,0,1,6.29,1.52c1,.68,2.94,1.79,3.39,3,.65,1.8,3.55,1,2.89-.8-.77-2.13-2.82-3.38-4.57-4.65a12.88,12.88,0,0,0-8-2.09c-1.93,0-1.93,3,0,3Z"/><path class="cls-7" d="M16.55,80.65a1.5,1.5,0,0,0,0-3,1.5,1.5,0,0,0,0,3Z"/><path class="cls-7" d="M92.84,69.06a1.5,1.5,0,0,0,0-3,1.5,1.5,0,0,0,0,3Z"/><path class="cls-8" d="M42.08,90a1.5,1.5,0,0,0,0-3,1.5,1.5,0,0,0,0,3Z"/><path class="cls-8" d="M30.54,92.21a1.5,1.5,0,0,0,0-3,1.5,1.5,0,0,0,0,3Z"/><path class="cls-8" d="M71.26,85a1.5,1.5,0,0,0,0-3,1.5,1.5,0,0,0,0,3Z"/><path class="cls-8" d="M84.69,80.83a1.5,1.5,0,0,0,0-3,1.5,1.5,0,0,0,0,3Z"/><path class="cls-8" d="M79.7,106.08a1.5,1.5,0,0,0,0-3,1.5,1.5,0,0,0,0,3Z"/><path class="cls-8" d="M47.92,112.16a1.5,1.5,0,0,0,0-3,1.5,1.5,0,0,0,0,3Z"/><path class="cls-5" d="M48.65,78.56a1.5,1.5,0,0,0,0-3,1.5,1.5,0,0,0,0,3Z"/><path class="cls-5" d="M63,74.76a1.5,1.5,0,0,0,0-3,1.5,1.5,0,0,0,0,3Z"/><path class="cls-5" d="M38.13,94.8a1.5,1.5,0,0,0,0-3,1.5,1.5,0,0,0,0,3Z"/><path class="cls-5" d="M78,87.33a1.5,1.5,0,0,0,0-3,1.5,1.5,0,0,0,0,3Z"/><path class="cls-7" d="M53.22,40.71A10.76,10.76,0,0,1,56.43,36c1.14-.93,3.28-2.4,4.82-2.33,1.93.09,1.92-2.91,0-3-2.2-.1-5.11,1.62-6.74,3a14.78,14.78,0,0,0-4.19,6.21c-.72,1.8,2.18,2.57,2.9.8Z"/><path class="cls-5" d="M76.49,33.15C75,27.86,68.58,23.62,64.4,20.43,61,17.85,52.06,10.75,48,15.84c-3.52,4.42,2,11.09,6.29,12.31,4.86,1.39,7.8-3.76,3.37-6.57-1.63-1-3.14,1.56-1.51,2.59-1.37,1.11-2.47.92-3.33-.56a7.61,7.61,0,0,1-2.67-3.26c-.48-5,4-2.48,5.31-2.07,2.91.9,5.51,3.3,7.85,5.14C66.6,26,72.41,29.79,73.6,34a1.5,1.5,0,0,0,2.89-.8Z"/><path d="M45.73,12.24a31.67,31.67,0,0,1,17.42,3.53,56.42,56.42,0,0,1,13.12,10C80,29.63,84,33.25,87.39,37.42c1.78,2.19,3.86,5.75,1.63,8.45-.55.66-4.9,3.5-5.35,3.26.61.33-.27-2.33-.2-2.09-.21-.51-.45-1-.71-1.5-1-1.21-.35-1.54,1.9-1,0,1.93,3,1.93,3,0,.18-7.65-11.14-5.54-7.72,2.12,1.63,3.64,1.89,6.77,6.22,4.69,3.38-1.62,7-4,6.9-8-.15-5.12-4.18-9-7.48-12.51a94.65,94.65,0,0,0-10.33-9.9c-4.67-3.64-9-7.48-14.47-9.85C56.25,9.07,50.6,8.94,45.73,9.24c-1.92.11-1.93,3.11,0,3Z"/><rect class="cls-9" x="56.15" y="78.1" width="3.24" height="9.22" rx="0.39" transform="translate(132.85 15.31) rotate(83.02)"/><rect class="cls-9" x="56.23" y="77.7" width="3.24" height="12.07" rx="0.39" transform="translate(-9.12 7.1) rotate(-6.51)"/><rect x="47.04" y="99.38" width="28.84" height="1.61" transform="translate(-18.91 14.43) rotate(-11.62)"/><ellipse class="cls-7" cx="51.41" cy="65.17" rx="8.19" ry="3.16" transform="translate(-17.68 111.18) rotate(-85.39)"/><ellipse class="cls-7" cx="55.94" cy="64.1" rx="3.38" ry="8.19" transform="translate(-24.9 37.6) rotate(-30.74)"/></svg>
