<svg id="Layer_1" data-name="Layer 1" xmlns="http://www.w3.org/2000/svg" width="100" height="110" viewBox="0 0 100 110"><defs><style>.cls-1{fill:#22b573;}.cls-2{fill:#fff;}.cls-3{fill:#eead44;}.cls-4{fill:#ed1c24;}.cls-5{fill:#f4f4f4;}.cls-6,.cls-9{fill:#fbb03b;}.cls-6{stroke:#f37176;}.cls-11,.cls-6{stroke-miterlimit:10;}.cls-7{fill:#ffaaa2;}.cls-8{fill:#f76900;}.cls-10{fill:#0a0a0a;}.cls-11{fill:none;stroke:#ed1c24;stroke-width:2px;}</style></defs><title>Skelet_2</title><path class="cls-1" d="M3.07,66.51c0-26,18.39-65,46-65s47,38.05,47,64.06"/><path class="cls-1" d="M29.37,70.72c2.37,7.07-3.5,10.14-10.57,12.51s-12.66,3.14-15-3.93S8.23,68.84,15.3,66.47,27,63.65,29.37,70.72Z"/><path class="cls-1" d="M70.76,69.91C68.5,77,74.41,80,81.52,82.26s12.7,3,15-4.15S91.88,67.72,84.78,65.46,73,62.81,70.76,69.91Z"/><ellipse class="cls-1" cx="49.07" cy="76.01" rx="32" ry="22.5"/><path class="cls-1" d="M69.07,98.51c0,14.36-7.95,9-19,9s-21,5.36-21-9,9-26,20-26S69.07,84.15,69.07,98.51Z"/><ellipse class="cls-2" cx="37.11" cy="97.47" rx="5.03" ry="1.77" transform="translate(-61.58 131.2) rotate(-88.02)"/><ellipse class="cls-2" cx="40.74" cy="97.47" rx="5.03" ry="1.77" transform="translate(-57.55 136.16) rotate(-88.8)"/><ellipse class="cls-2" cx="44.37" cy="97.46" rx="5.03" ry="1.77" transform="translate(-55.52 136.06) rotate(-86.65)"/><ellipse class="cls-2" cx="48.01" cy="97.45" rx="5.04" ry="1.77" transform="translate(-50.03 144.26) rotate(-89.29)"/><ellipse class="cls-2" cx="51.64" cy="97.45" rx="5.03" ry="1.77" transform="translate(-48.18 144.35) rotate(-87.25)"/><ellipse class="cls-2" cx="55.27" cy="97.44" rx="5.03" ry="1.77" transform="translate(-44.18 149.02) rotate(-87.85)"/><ellipse class="cls-2" cx="58.85" cy="97.44" rx="5.03" ry="1.72" transform="translate(-42.1 150.02) rotate(-86.38)"/><ellipse class="cls-2" cx="62.44" cy="97.43" rx="5.04" ry="1.77" transform="matrix(0.02, -1, 1, 0.02, -36.18, 157.97)"/><circle cx="37.7" cy="90.77" r="1.08"/><circle cx="44.26" cy="90.67" r="1.08"/><circle cx="47.65" cy="90.68" r="1.08"/><circle cx="51.09" cy="90.61" r="1.08"/><circle cx="54.22" cy="90.5" r="1.08"/><circle cx="57.64" cy="90.54" r="1.08"/><circle cx="61.06" cy="90.58" r="1.08"/><circle cx="41.11" cy="90.67" r="1.08"/><circle cx="38.2" cy="104.13" r="1.08"/><circle cx="44.77" cy="104.03" r="1.08"/><circle cx="48.15" cy="104.05" r="1.08"/><circle cx="51.6" cy="103.98" r="1.08"/><circle cx="54.72" cy="103.86" r="1.08"/><circle cx="58.14" cy="103.91" r="1.08"/><circle cx="61.56" cy="103.95" r="1.08"/><circle cx="41.61" cy="104.03" r="1.08"/><rect x="35.31" y="96.06" width="28.84" height="1.61" transform="translate(0.44 -0.23) rotate(0.26)"/><circle class="cls-2" cx="66.52" cy="50.53" r="11.35"/><circle class="cls-3" cx="66.52" cy="50.53" r="9.19"/><circle class="cls-4" cx="66.52" cy="50.53" r="7.03"/><path class="cls-5" d="M57.82,39.25a10.81,10.81,0,0,1,5.26-2.6c1.44-.21,3.83-.49,5.13.3,1.65,1,3.15-1.58,1.51-2.59-1.92-1.17-5-1-7.14-.67a14,14,0,0,0-6.89,3.44c-1.49,1.23.64,3.34,2.13,2.12Z"/><circle class="cls-2" cx="33.52" cy="50.53" r="11.35"/><circle class="cls-3" cx="33.52" cy="50.53" r="9.19"/><circle class="cls-4" cx="33.52" cy="50.53" r="7.03"/><path class="cls-5" d="M44.36,37.13a14,14,0,0,0-6.89-3.44c-2.12-.32-5.24-.49-7.14.67-1.64,1-.14,3.61,1.51,2.59,1.25-.76,3.74-.52,5.13-.3a10.94,10.94,0,0,1,5.26,2.6c1.48,1.22,3.62-.89,2.13-2.12Z"/><ellipse class="cls-5" cx="47.68" cy="67.94" rx="8.19" ry="3.16" transform="translate(-32.91 87.79) rotate(-68.77)"/><ellipse class="cls-5" cx="52.33" cy="68.21" rx="3.38" ry="8.19" transform="translate(-15.06 14.83) rotate(-14.12)"/><rect class="cls-6" x="48.16" y="12.16" width="5.09" height="14.48" rx="0.39" transform="translate(70.45 -31.18) rotate(90.39)"/><rect class="cls-6" x="48.08" y="11.54" width="5.09" height="18.96" rx="0.39" transform="translate(0.32 -0.75) rotate(0.86)"/><ellipse class="cls-7" cx="68.23" cy="69" rx="5.34" ry="1.94" transform="translate(-2.92 135) rotate(-88.17)"/><ellipse class="cls-7" cx="71.89" cy="70.89" rx="5.34" ry="1.94" transform="translate(-28.62 61.28) rotate(-39.14)"/><ellipse class="cls-7" cx="73.99" cy="74.3" rx="5.34" ry="1.94" transform="translate(-12.48 14.99) rotate(-10.67)"/><ellipse class="cls-7" cx="64.82" cy="71.11" rx="1.94" ry="5.34" transform="translate(-30.05 55.03) rotate(-38.03)"/><ellipse class="cls-7" cx="62.64" cy="73.84" rx="1.94" ry="5.34" transform="translate(-22.86 119.3) rotate(-77.69)"/><ellipse class="cls-7" cx="67.48" cy="79.43" rx="5.34" ry="1.94" transform="translate(-20.09 135.96) rotate(-82.5)"/><ellipse class="cls-7" cx="63.82" cy="77.54" rx="5.34" ry="1.94" transform="translate(-36.57 80.35) rotate(-52.15)"/><ellipse class="cls-7" cx="71.18" cy="78.25" rx="1.94" ry="5.34" transform="translate(-33.2 61.08) rotate(-38.37)"/><circle class="cls-8" cx="68" cy="74.68" r="3.88"/><path class="cls-5" d="M81.07,69a1.5,1.5,0,0,0,0-3,1.5,1.5,0,0,0,0,3Z"/><path class="cls-9" d="M63,87.51a1.5,1.5,0,0,0,0-3,1.5,1.5,0,0,0,0,3Z"/><path class="cls-9" d="M77.31,81.3a1.5,1.5,0,0,0,0-3,1.5,1.5,0,0,0,0,3Z"/><path class="cls-4" d="M57.08,82a1.5,1.5,0,0,0,0-3,1.5,1.5,0,0,0,0,3Z"/><path class="cls-4" d="M72.39,87.68a1.5,1.5,0,0,0,0-3,1.5,1.5,0,0,0,0,3Z"/><path class="cls-5" d="M85.07,79a1.5,1.5,0,0,0,0-3,1.5,1.5,0,0,0,0,3Z"/><ellipse class="cls-7" cx="28.93" cy="69" rx="1.94" ry="5.34" transform="translate(-2.19 0.96) rotate(-1.83)"/><ellipse class="cls-7" cx="25.27" cy="70.89" rx="1.94" ry="5.34" transform="translate(-45.67 45.74) rotate(-50.86)"/><ellipse class="cls-7" cx="23.16" cy="74.3" rx="1.94" ry="5.34" transform="translate(-54.14 83.3) rotate(-79.33)"/><ellipse class="cls-7" cx="32.33" cy="71.11" rx="5.34" ry="1.94" transform="translate(-43.6 52.77) rotate(-51.97)"/><ellipse class="cls-7" cx="34.52" cy="73.84" rx="5.34" ry="1.94" transform="translate(-14.95 9.06) rotate(-12.31)"/><ellipse class="cls-7" cx="29.68" cy="79.43" rx="1.94" ry="5.34" transform="translate(-10.12 4.55) rotate(-7.5)"/><ellipse class="cls-7" cx="33.34" cy="77.54" rx="1.94" ry="5.34" transform="translate(-40.57 36.77) rotate(-37.85)"/><ellipse class="cls-7" cx="25.98" cy="78.25" rx="5.34" ry="1.94" transform="translate(-51.5 50.05) rotate(-51.63)"/><circle class="cls-8" cx="29.15" cy="74.68" r="3.88"/><path class="cls-5" d="M16.08,69a1.5,1.5,0,0,0,0-3,1.5,1.5,0,0,0,0,3Z"/><path class="cls-9" d="M34.21,87.51a1.5,1.5,0,0,0,0-3,1.5,1.5,0,0,0,0,3Z"/><path class="cls-9" d="M18.85,81.3a1.5,1.5,0,0,0,0-3,1.5,1.5,0,0,0,0,3Z"/><path class="cls-4" d="M40.07,82a1.5,1.5,0,0,0,0-3,1.5,1.5,0,0,0,0,3Z"/><path class="cls-4" d="M24.77,87.68a1.5,1.5,0,0,0,0-3,1.5,1.5,0,0,0,0,3Z"/><path class="cls-5" d="M12.08,80a1.5,1.5,0,0,0,0-3,1.5,1.5,0,0,0,0,3Z"/><path class="cls-10" d="M6.45,76.56a1.5,1.5,0,0,0,0-3,1.5,1.5,0,0,0,0,3Z"/><path class="cls-10" d="M93,75.35a1.5,1.5,0,0,0,0-3,1.5,1.5,0,0,0,0,3Z"/><path class="cls-10" d="M92,64.05a1.5,1.5,0,0,0,0-3,1.5,1.5,0,0,0,0,3Z"/><path class="cls-10" d="M91,56.18a1.5,1.5,0,0,0,0-3,1.5,1.5,0,0,0,0,3Z"/><path class="cls-10" d="M89.38,49.12a1.5,1.5,0,0,0,0-3,1.5,1.5,0,0,0,0,3Z"/><path class="cls-10" d="M86.56,41.25a1.5,1.5,0,0,0,0-3,1.5,1.5,0,0,0,0,3Z"/><path class="cls-10" d="M83.33,33.58a1.5,1.5,0,0,0,0-3,1.5,1.5,0,0,0,0,3Z"/><path class="cls-10" d="M79.09,26.11a1.5,1.5,0,0,0,0-3,1.5,1.5,0,0,0,0,3Z"/><path class="cls-10" d="M74.85,20.47a1.5,1.5,0,0,0,0-3,1.5,1.5,0,0,0,0,3Z"/><path class="cls-10" d="M70.62,15a1.5,1.5,0,0,0,0-3,1.5,1.5,0,0,0,0,3Z"/><path class="cls-10" d="M64.56,11a1.5,1.5,0,0,0,0-3,1.5,1.5,0,0,0,0,3Z"/><path class="cls-10" d="M56.69,7.55a1.5,1.5,0,0,0,0-3,1.5,1.5,0,0,0,0,3Z"/><path class="cls-10" d="M50.24,5.94a1.5,1.5,0,0,0,0-3,1.5,1.5,0,0,0,0,3Z"/><path class="cls-10" d="M41.76,7.15a1.5,1.5,0,0,0,0-3,1.5,1.5,0,0,0,0,3Z"/><path class="cls-10" d="M34.5,10.58a1.5,1.5,0,0,0,0-3,1.5,1.5,0,0,0,0,3Z"/><path class="cls-10" d="M28.85,15a1.5,1.5,0,0,0,0-3,1.5,1.5,0,0,0,0,3Z"/><path class="cls-10" d="M24.41,19.86a1.5,1.5,0,0,0,0-3,1.5,1.5,0,0,0,0,3Z"/><path class="cls-10" d="M20.38,25.91a1.5,1.5,0,0,0,0-3,1.5,1.5,0,0,0,0,3Z"/><path class="cls-10" d="M17.15,31.76a1.5,1.5,0,0,0,0-3,1.5,1.5,0,0,0,0,3Z"/><path class="cls-10" d="M14.12,38.22a1.5,1.5,0,0,0,0-3,1.5,1.5,0,0,0,0,3Z"/><path class="cls-10" d="M11.9,44.68a1.5,1.5,0,0,0,0-3,1.5,1.5,0,0,0,0,3Z"/><path class="cls-10" d="M9.28,52.15a1.5,1.5,0,0,0,0-3,1.5,1.5,0,0,0,0,3Z"/><path class="cls-10" d="M8.27,58.41a1.5,1.5,0,0,0,0-3,1.5,1.5,0,0,0,0,3Z"/><path class="cls-10" d="M7.67,66.07a1.5,1.5,0,0,0,0-3,1.5,1.5,0,0,0,0,3Z"/><path class="cls-4" d="M43,12.6a1.5,1.5,0,0,0,0-3,1.5,1.5,0,0,0,0,3Z"/><path class="cls-4" d="M57.7,12.39a1.5,1.5,0,0,0,0-3,1.5,1.5,0,0,0,0,3Z"/><path class="cls-4" d="M57.7,30a1.5,1.5,0,0,0,0-3,1.5,1.5,0,0,0,0,3Z"/><path class="cls-4" d="M41,31.16a1.5,1.5,0,0,0,0-3,1.5,1.5,0,0,0,0,3Z"/><path class="cls-11" d="M14.57,59c.41-6.52,2.28-20.83,13-33a50.08,50.08,0,0,1,9-8"/><path class="cls-11" d="M85.57,58c-.4-6.52-2.28-20.83-13-33a49.74,49.74,0,0,0-9-8"/></svg>
